<?xml version="1.0" encoding="UTF-8"?>
<svg width="149.08mm" height="112.99mm" version="1.1" viewBox="0 0 149.08204 112.98794" xmlns="http://www.w3.org/2000/svg" xmlns:xlink="http://www.w3.org/1999/xlink">
	<defs>
		<linearGradient id="f" x1="172.12" x2="160.9" y1="474.17" y2="442.18" gradientTransform="matrix(.12338 0 0 .12338 -22.488 359.47)" gradientUnits="userSpaceOnUse" xlink:href="#i"/>
		<linearGradient id="i">
			<stop stop-color="#6969e1" offset="0"/>
			<stop stop-color="#1011a1" offset="1"/>
		</linearGradient>
		<linearGradient id="e" x1="160.71" x2="171.19" y1="441.99" y2="474.36" gradientTransform="matrix(.12338 0 0 .12338 -22.488 359.47)" gradientUnits="userSpaceOnUse" xlink:href="#h"/>
		<linearGradient id="h">
			<stop stop-color="#b40e0e" offset="0"/>
			<stop stop-color="#f24c4c" offset="1"/>
		</linearGradient>
		<linearGradient id="d" x1="143.68" x2="173.81" y1="475.48" y2="480.91" gradientTransform="matrix(.12338 0 0 .12338 -22.488 359.47)" gradientUnits="userSpaceOnUse" xlink:href="#j"/>
		<linearGradient id="j">
			<stop stop-color="#01de00" offset="0"/>
			<stop stop-color="#01a300" offset="1"/>
		</linearGradient>
		<linearGradient id="c" x1="170.63" x2="171" y1="477.67" y2="476.78" gradientTransform="matrix(.12338 0 0 .12338 -22.488 359.47)" gradientUnits="userSpaceOnUse" xlink:href="#g"/>
		<linearGradient id="g">
			<stop stop-color="#b40e0e" stop-opacity=".92975" offset="0"/>
			<stop stop-color="#99403c" stop-opacity="0" offset="1"/>
		</linearGradient>
		<linearGradient id="k" x1="117.77" x2="140.6" y1="353.59" y2="360.33" gradientTransform="translate(-48.924 -.093544)" gradientUnits="userSpaceOnUse">
			<stop stop-color="#c03a36" offset="0"/>
			<stop stop-color="#ed393d" offset="1"/>
		</linearGradient>
		<linearGradient id="l" x1="115.76" x2="136.13" y1="357.52" y2="370.02" gradientTransform="translate(-48.924 -.093544)" gradientUnits="userSpaceOnUse">
			<stop stop-color="#b5323f" offset="0"/>
			<stop stop-color="#ed5a61" offset="1"/>
		</linearGradient>
		<linearGradient id="t" x1="121.19" x2="124.96" y1="349.86" y2="350.95" gradientTransform="matrix(1.0416 0 0 1.0416 -53.957 -14.552)" gradientUnits="userSpaceOnUse" xlink:href="#a"/>
		<linearGradient id="a">
			<stop stop-color="#ff463b" offset="0"/>
			<stop stop-color="#ed8177" offset=".66691"/>
			<stop stop-color="#ff261e" stop-opacity=".99174" offset="1"/>
		</linearGradient>
		<linearGradient id="ab" x1="121.62" x2="125.18" y1="348.24" y2="348.86" gradientTransform="matrix(1.0416 0 0 1.0416 -53.957 -14.552)" gradientUnits="userSpaceOnUse" xlink:href="#b"/>
		<linearGradient id="b">
			<stop stop-color="#f96667" offset="0"/>
			<stop stop-color="#f90000" offset="1"/>
		</linearGradient>
		<linearGradient id="s" x1="121.19" x2="124.96" y1="349.86" y2="350.95" gradientTransform="matrix(1.0631 0 0 1.0631 -51.4 -19.416)" gradientUnits="userSpaceOnUse" xlink:href="#a"/>
		<linearGradient id="y" x1="121.62" x2="125.18" y1="348.24" y2="348.86" gradientTransform="matrix(1.0631 0 0 1.0631 -51.4 -19.416)" gradientUnits="userSpaceOnUse" xlink:href="#b"/>
		<linearGradient id="p" x1="121.19" x2="124.96" y1="349.86" y2="350.95" gradientTransform="matrix(1.0806 0 0 1.0806 -48.205 -22.765)" gradientUnits="userSpaceOnUse" xlink:href="#a"/>
		<linearGradient id="aa" x1="121.62" x2="125.18" y1="348.24" y2="348.86" gradientTransform="matrix(1.0806 0 0 1.0806 -48.205 -22.765)" gradientUnits="userSpaceOnUse" xlink:href="#b"/>
		<linearGradient id="n" x1="121.19" x2="124.96" y1="349.86" y2="350.95" gradientTransform="matrix(1.1001 0 0 1.1001 -44.958 -26.415)" gradientUnits="userSpaceOnUse" xlink:href="#a"/>
		<linearGradient id="w" x1="121.62" x2="125.18" y1="348.24" y2="348.86" gradientTransform="matrix(1.1001 0 0 1.1001 -44.958 -26.415)" gradientUnits="userSpaceOnUse" xlink:href="#b"/>
		<linearGradient id="q" x1="121.19" x2="124.96" y1="349.86" y2="350.95" gradientTransform="matrix(1.0415 .019236 -.019236 1.0415 -50.113 -12.955)" gradientUnits="userSpaceOnUse" xlink:href="#a"/>
		<linearGradient id="u" x1="121.62" x2="125.18" y1="348.24" y2="348.86" gradientTransform="matrix(1.0415 .019236 -.019236 1.0415 -50.113 -12.955)" gradientUnits="userSpaceOnUse" xlink:href="#b"/>
		<linearGradient id="r" x1="121.19" x2="124.96" y1="349.86" y2="350.95" gradientTransform="matrix(1.063 .019633 -.019633 1.063 -47.467 -17.771)" gradientUnits="userSpaceOnUse" xlink:href="#a"/>
		<linearGradient id="x" x1="121.62" x2="125.18" y1="348.24" y2="348.86" gradientTransform="matrix(1.063 .019633 -.019633 1.063 -47.467 -17.771)" gradientUnits="userSpaceOnUse" xlink:href="#b"/>
		<linearGradient id="o" x1="121.19" x2="124.96" y1="349.86" y2="350.95" gradientTransform="matrix(1.0805 .019956 -.019956 1.0805 -44.211 -21.06)" gradientUnits="userSpaceOnUse" xlink:href="#a"/>
		<linearGradient id="z" x1="121.62" x2="125.18" y1="348.24" y2="348.86" gradientTransform="matrix(1.0805 .019956 -.019956 1.0805 -44.211 -21.06)" gradientUnits="userSpaceOnUse" xlink:href="#b"/>
		<linearGradient id="m" x1="121.19" x2="124.96" y1="349.86" y2="350.95" gradientTransform="matrix(1.0999 .020316 -.020316 1.0999 -40.897 -24.649)" gradientUnits="userSpaceOnUse" xlink:href="#a"/>
		<linearGradient id="v" x1="121.62" x2="125.18" y1="348.24" y2="348.86" gradientTransform="matrix(1.0999 .020316 -.020316 1.0999 -40.897 -24.649)" gradientUnits="userSpaceOnUse" xlink:href="#b"/>
		<filter id="ac" x="-.070976" y="-.12754" width="1.142" height="1.2551" color-interpolation-filters="sRGB">
			<feGaussianBlur stdDeviation="0.93503731"/>
		</filter>
		<filter id="ad" x="-.03551" y="-.047942" width="1.071" height="1.0959" color-interpolation-filters="sRGB">
			<feGaussianBlur stdDeviation="1.6304947"/>
		</filter>
	</defs>
	<g transform="translate(177.4 -100.02)">
		<g fill-opacity=".98347">
			<rect transform="matrix(1.2631 0 0 1.2631 -161.01 -330.59)" x="-9.062" y="344.82" width="110.2" height="81.624" filter="url(#ad)"/>
			<rect x="-173.71" y="103.88" width="139.2" height="103.1" fill="#ececec"/>
			<rect x="-141.42" y="130.56" width="44.708" height="13.278" fill="#fc0" opacity=".278" stroke="#000" stroke-linejoin="round" stroke-opacity=".94628" stroke-width=".94194"/>
		</g>
		<g>
			<text x="-118.79254" y="138.51248" fill="#000000" font-family="'Open Sans'" font-size="5.0715px" letter-spacing="0px" opacity=".278" stroke-width=".63394" text-align="center" text-anchor="middle" word-spacing="0px" style="font-feature-settings:normal;font-variant-caps:normal;font-variant-ligatures:normal;font-variant-numeric:normal;line-height:1.25" xml:space="preserve"><tspan x="-118.79254" y="138.51248" fill="#000000" font-family="'Open Sans'" stroke-width=".63394">gitohashi</tspan></text>
			<rect x="-114.36" y="156.08" width="44.708" height="13.278" fill="#fc0" stroke="#000" stroke-linejoin="round" stroke-opacity=".94628" stroke-width=".94194"/>
			<text x="-91.734077" y="164.03488" fill="#000000" font-family="'Open Sans'" font-size="5.0715px" letter-spacing="0px" stroke-width=".63394" text-align="center" text-anchor="middle" word-spacing="0px" style="font-feature-settings:normal;font-variant-caps:normal;font-variant-ligatures:normal;font-variant-numeric:normal;line-height:1.25" xml:space="preserve"><tspan x="-91.734077" y="164.03488" fill="#000000" font-family="'Open Sans'" stroke-width=".63394">libjsongit2</tspan></text>
		</g>
		<rect x="-165.88" y="156.08" width="44.708" height="13.278" fill="#008000" fill-opacity=".95455" opacity=".278" stroke="#000" stroke-linejoin="round" stroke-opacity=".94628" stroke-width=".94194"/>
		<text x="-143.2515" y="164.03485" fill="#ffffff" font-family="'Open Sans'" font-size="5.0715px" letter-spacing="0px" opacity=".278" stroke-width=".63394" text-align="center" text-anchor="middle" word-spacing="0px" style="font-feature-settings:normal;font-variant-caps:normal;font-variant-ligatures:normal;font-variant-numeric:normal;line-height:1.25" xml:space="preserve"><tspan x="-143.2515" y="164.03485" fill="#ffffff" font-family="'Open Sans'" stroke-width=".63394">libwebsockets</tspan></text>
		<rect x="-137.75" y="182.07" width="44.708" height="13.278" fill="#0f0" fill-opacity=".19008" stroke="#000" stroke-linejoin="round" stroke-opacity=".94628" stroke-width=".94194"/>
		<text x="-115.12961" y="190.02991" fill="#000000" font-family="'Open Sans'" font-size="5.0715px" letter-spacing="0px" stroke-width=".63394" text-align="center" text-anchor="middle" word-spacing="0px" style="font-feature-settings:normal;font-variant-caps:normal;font-variant-ligatures:normal;font-variant-numeric:normal;line-height:1.25" xml:space="preserve"><tspan x="-115.12961" y="190.02991" fill="#000000" font-family="'Open Sans'" stroke-width=".63394">libarchive</tspan></text>
		<rect x="-86.946" y="182.07" width="44.708" height="13.278" fill="#0f0" fill-opacity=".19008" stroke="#000" stroke-linejoin="round" stroke-opacity=".94628" stroke-width=".94194"/>
		<text x="-64.321144" y="190.02991" fill="#000000" font-family="'Open Sans'" font-size="5.0715px" letter-spacing="0px" stroke-width=".63394" text-align="center" text-anchor="middle" word-spacing="0px" style="font-feature-settings:normal;font-variant-caps:normal;font-variant-ligatures:normal;font-variant-numeric:normal;line-height:1.25" xml:space="preserve"><tspan x="-64.321144" y="190.02991" fill="#000000" font-family="'Open Sans'" stroke-width=".63394">libgit2</tspan></text>
		<g fill="none" stroke="#000" stroke-width="1.0926">
			<path d="m-124.62 144.05-12.525 12.052" opacity=".278"/>
			<path d="m-112.21 143.93 12.525 12.052" opacity=".278"/>
			<path d="m-95.608 169.75-12.525 12.052"/>
			<path d="m-83.202 169.63 12.525 12.052"/>
		</g>
		<g fill="#000000" font-family="'Open Sans'" letter-spacing="0px" text-anchor="middle" word-spacing="0px">
			<text x="-90.938812" y="200.25844" font-size="2.6736px" stroke-width=".3342" text-align="center" style="font-feature-settings:normal;font-variant-caps:normal;font-variant-ligatures:normal;font-variant-numeric:normal;line-height:1.25" xml:space="preserve"><tspan x="-90.938812" y="200.25844" stroke-width=".3342">Already in popular distros</tspan></text>
			<text x="-144.07147" y="173.5874" font-size="2.6736px" opacity=".278" stroke-width=".3342" text-align="center" style="font-feature-settings:normal;font-variant-caps:normal;font-variant-ligatures:normal;font-variant-numeric:normal;line-height:1.25" xml:space="preserve"><tspan x="-144.07147" y="173.5874">Already in popular distros</tspan><tspan x="-144.07147" y="176.92944">but we need latest version</tspan></text>
			<text x="-167.47272" y="116.59389" font-size="7.5795px" stroke-width=".94744" text-align="center" style="font-feature-settings:normal;font-variant-caps:normal;font-variant-ligatures:normal;font-variant-numeric:normal;line-height:1.25" xml:space="preserve"><tspan x="-167.47272" y="116.59389" fill="#000000" font-family="'Open Sans'" font-weight="bold" stroke-width=".94744" text-align="start" text-anchor="start">Build Dependencies</tspan></text>
		</g>
		<path transform="matrix(1.2631 0 0 1.2631 -161.01 -330.59)" d="m65.641 359.35c-0.44097 0.48507-0.88194 0.97013-1.3229 1.4552 8.3344 5.2476 16.669 10.495 25.003 15.743 2.2049-3.5278 4.4097-7.0556 6.6146-10.583-0.35278-0.57326-0.70555-1.1465-1.0583-1.7198-1.9844 1.8521-3.9688 3.7042-5.9531 5.5562-3.0456-1.822-6.0685-3.6876-9.1283-5.4824-4.0569-1.7885-8.1138-3.577-12.171-5.3656-0.66146 0.13229-1.3229 0.26459-1.9844 0.39688z" fill="#121112" filter="url(#ac)"/>
		<g transform="matrix(1.2631 0 0 1.2631 -161.01 -330.59)">
			<path d="m65.808 354.11-0.30138 5.453 23.641 14.425 6.0223-9.6578 0.47907-5.4964-22.688-11.89z" fill="url(#k)"/>
			<path d="m65.808 354.2 23.76 13.657-0.37418 6.1272-23.555-14.359z" fill="url(#l)"/>
			<path d="m95.602 358.93-5.9868 8.9803-0.42095 6.1272 5.9367-9.6852z" fill="none"/>
			<g>
				<path d="m72.569 348.08-0.64554 2.1559c0.0354 0.70011 0.85302 1.5855 1.8584 1.9094 1.327 0.3693 2.0551-0.14441 2.6299-0.98807 0.203-1.6974 0.21553-2.1726 0.17876-1.8783-0.28342 0.89275-1.3068 1.1565-2.1309 1.0182-0.771-0.11387-1.3525-0.75779-1.7223-1.3958-0.14654-0.25392-0.0652-0.49217-0.19269-0.74818z" fill="url(#t)"/>
				<path d="m74.155 347.06c1.0984-0.0228 2.4335 0.62845 2.49 1.7258 0.0309 0.4612-0.15307 0.94366-0.54492 1.2087-0.60018 0.44696-1.4338 0.4846-2.1031 0.17488-0.89531-0.44735-1.5102-1.116-1.4506-2.0899 0.15847-0.59222 1.1158-1.0118 1.6086-1.0195z" fill="url(#ab)"/>
				<path d="m77.736 350.7-0.65885 2.2003c0.0361 0.71454 0.87061 1.6182 1.8967 1.9488 1.3544 0.37691 2.0975-0.14739 2.6842-1.0084 0.20719-1.7324 0.21997-2.2174 0.18245-1.917-0.28928 0.91116-1.3337 1.1803-2.1748 1.0392-0.78691-0.11623-1.3804-0.77342-1.7578-1.4246-0.14956-0.25916-0.0666-0.50232-0.19666-0.76361z" fill="url(#s)"/>
				<path d="m79.354 349.66c1.121-0.0232 2.4837 0.64141 2.5414 1.7614 0.0316 0.47071-0.15623 0.96313-0.55616 1.2336-0.61256 0.45618-1.4634 0.49461-2.1465 0.1785-0.91378-0.45657-1.5413-1.139-1.4805-2.133 0.16173-0.60444 1.1388-1.0327 1.6418-1.0406z" fill="url(#y)"/>
				<path d="m83.057 353.44-0.66971 2.2366c0.0368 0.72631 0.88495 1.6448 1.9279 1.9809 1.3767 0.38312 2.1321-0.14982 2.7284-1.025 0.2106-1.7609 0.2236-2.254 0.18545-1.9486-0.29403 0.92616-1.3557 1.1998-2.2107 1.0563-0.79986-0.11813-1.4032-0.78615-1.7868-1.4481-0.15202-0.26342-0.0677-0.51058-0.19991-0.77618z" fill="url(#p)"/>
				<path d="m84.702 352.38c1.1395-0.0236 2.5246 0.65197 2.5832 1.7904 0.0321 0.47847-0.1588 0.97898-0.56531 1.254-0.62266 0.46369-1.4875 0.50274-2.1818 0.18142-0.92883-0.46409-1.5667-1.1578-1.5049-2.1681 0.1644-0.61438 1.1576-1.0497 1.6688-1.0577z" fill="url(#aa)"/>
				<path d="m88.672 356.58-0.68178 2.2769c0.0374 0.73941 0.90091 1.6745 1.9627 2.0166 1.4015 0.39002 2.1705-0.15253 2.7776-1.0436 0.2144-1.7927 0.22763-2.2946 0.1888-1.9837-0.29934 0.94287-1.3801 1.2214-2.2505 1.0753-0.81429-0.12027-1.4285-0.80034-1.819-1.4742-0.15477-0.26818-0.0689-0.51981-0.20352-0.7902z" fill="url(#n)"/>
				<path d="m90.347 355.5c1.1601-0.0241 2.5701 0.66372 2.6298 1.8227 0.0327 0.4871-0.16167 0.99665-0.57551 1.2766-0.63389 0.47205-1.5143 0.51181-2.2212 0.1847-0.94559-0.47246-1.595-1.1787-1.532-2.2072 0.16736-0.62547 1.1784-1.0687 1.6989-1.0768z" fill="url(#w)"/>
				<path d="m69.695 351.95-0.68524 2.1436c0.0225 0.70064 0.8236 1.6009 1.8228 1.9434 1.32 0.39374 2.0574-0.10643 2.6477-0.93933 0.23431-1.6933 0.25562-2.1683 0.21342-1.8746-0.29986 0.88736-1.3279 1.1322-2.1493 0.97863-0.76877-0.12809-1.3383-0.78264-1.6962-1.4274-0.14183-0.25658-0.0561-0.49329-0.17884-0.75161z" fill="url(#q)"/>
				<path d="m71.299 350.96c1.0986-3e-3 2.4214 0.67328 2.4577 1.7715 0.0224 0.46169-0.17047 0.94067-0.56715 1.1984-0.60833 0.4358-1.4425 0.45804-2.106 0.13601-0.8869-0.4638-1.4893-1.1437-1.4117-2.1163 0.16938-0.58919 1.1343-0.99107 1.6271-0.98964z" fill="url(#u)"/>
				<path d="m74.812 354.66-0.69937 2.1878c0.0229 0.71509 0.84057 1.634 1.8604 1.9835 1.3472 0.40186 2.0999-0.10863 2.7023-0.95869 0.23915-1.7282 0.26088-2.213 0.21782-1.9133-0.30606 0.90566-1.3553 1.1555-2.1937 0.99882-0.78463-0.13074-1.3659-0.79878-1.7312-1.4568-0.14475-0.26188-0.0573-0.50346-0.18253-0.76711z" fill="url(#r)"/>
				<path d="m76.449 353.65c1.1213-2e-3 2.4714 0.68716 2.5084 1.808 0.0229 0.47121-0.17399 0.96008-0.57885 1.2232-0.62088 0.44479-1.4723 0.4675-2.1494 0.13883-0.90519-0.47337-1.52-1.1673-1.4408-2.16 0.17287-0.60135 1.1577-1.0115 1.6607-1.01z" fill="url(#x)"/>
				<path d="m80.082 357.51-0.7109 2.2238c0.0234 0.72687 0.85442 1.6609 1.891 2.0162 1.3694 0.40848 2.1345-0.11042 2.7468-0.97449 0.24309-1.7567 0.26519-2.2494 0.22141-1.9448-0.31109 0.92057-1.3776 1.1745-2.2298 1.0152-0.79754-0.13288-1.3884-0.81193-1.7597-1.4808-0.14712-0.26618-0.0582-0.51174-0.18554-0.77974z" fill="url(#o)"/>
				<path d="m81.746 356.48c1.1398-3e-3 2.5121 0.69848 2.5497 1.8378 0.0233 0.47898-0.17685 0.97588-0.58837 1.2433-0.63112 0.45211-1.4965 0.47518-2.1848 0.1411-0.9201-0.48117-1.5451-1.1865-1.4646-2.1955 0.17571-0.61123 1.1767-1.0282 1.688-1.0267z" fill="url(#z)"/>
				<path d="m85.638 360.75-0.72371 2.2639c0.0237 0.73998 0.86983 1.6908 1.9251 2.0525 1.3941 0.41584 2.173-0.11242 2.7964-0.99208 0.24747-1.7884 0.26996-2.29 0.2254-1.9799-0.3167 0.93718-1.4024 1.1957-2.27 1.0336-0.81193-0.13528-1.4134-0.82658-1.7914-1.5075-0.14979-0.27099-0.0593-0.52099-0.18889-0.79382z" fill="url(#m)"/>
				<path d="m87.332 359.7c1.1603-3e-3 2.5574 0.71107 2.5957 1.8709 0.0237 0.48762-0.18005 0.9935-0.59899 1.2658-0.6425 0.46026-1.5235 0.48376-2.2242 0.14365-0.9367-0.48984-1.573-1.2079-1.491-2.2351 0.17889-0.62227 1.198-1.0467 1.7185-1.0452z" fill="url(#v)"/>
			</g>
		</g>
		<g transform="matrix(.87389 0 0 .87389 -167.41 -252.03)" opacity=".278">
			<circle cx="79.782" cy="438.91" r="4.9835" fill="#fff6d5" fill-opacity=".97521" opacity="1" stroke="#000" stroke-linejoin="round" stroke-width=".35389"/>
			<text x="79.842163" y="442.10245" fill="#000000" font-family="'Open Sans'" font-size="1.8486px" letter-spacing="0px" stroke-width=".23107" text-align="center" text-anchor="middle" word-spacing="0px" style="font-feature-settings:normal;font-variant-caps:normal;font-variant-ligatures:normal;font-variant-numeric:normal;line-height:1.25" xml:space="preserve"><tspan x="79.842163" y="442.10245" stroke-width=".23107">cmake</tspan></text>
			<g transform="matrix(.87335 0 0 .87335 82.375 74.143)">
				<g>
					<path d="m-2.9592 412.95-2.979 6.0355 3.2085-2.7006z" fill="url(#f)"/>
					<path d="m-2.9606 412.96 2.9776 6.0245-2.6573-1.1026z" fill="url(#e)"/>
					<path d="m-3.9762 417.33 4.0341 1.6768-6.0192 8e-3z" fill="url(#d)"/>
					<path d="m-2.6494 417.88 2.6605 1.095-0.065289-0.13873-2.5919-1.0753z" fill="url(#c)"/>
				</g>
				<path d="m-2.9675 412.94-2.9706 6.0717h5.9738z" fill="none" stroke="#000" stroke-width=".05737"/>
				<path d="m-2.649 417.88-0.32316-4.9166" fill="none" stroke="#000" stroke-width=".032644px"/>
			</g>
		</g>
		<g transform="matrix(.87389 0 0 .87389 -139.04 -227.22)">
			<circle cx="79.782" cy="438.91" r="4.9835" fill="#fff6d5" fill-opacity=".97521" stroke="#000" stroke-linejoin="round" stroke-width=".35389"/>
			<text x="79.842163" y="442.10245" fill="#000000" font-family="'Open Sans'" font-size="1.8486px" letter-spacing="0px" stroke-width=".23107" text-align="center" text-anchor="middle" word-spacing="0px" style="font-feature-settings:normal;font-variant-caps:normal;font-variant-ligatures:normal;font-variant-numeric:normal;line-height:1.25" xml:space="preserve"><tspan x="79.842163" y="442.10245" stroke-width=".23107">cmake</tspan></text>
			<g transform="matrix(.87335 0 0 .87335 82.375 74.143)">
				<g>
					<path d="m-2.9592 412.95-2.979 6.0355 3.2085-2.7006z" fill="url(#f)"/>
					<path d="m-2.9606 412.96 2.9776 6.0245-2.6573-1.1026z" fill="url(#e)"/>
					<path d="m-3.9762 417.33 4.0341 1.6768-6.0192 8e-3z" fill="url(#d)"/>
					<path d="m-2.6494 417.88 2.6605 1.095-0.065289-0.13873-2.5919-1.0753z" fill="url(#c)"/>
				</g>
				<path d="m-2.9675 412.94-2.9706 6.0717h5.9738z" fill="none" stroke="#000" stroke-width=".05737"/>
				<path d="m-2.649 417.88-0.32316-4.9166" fill="none" stroke="#000" stroke-width=".032644px"/>
			</g>
		</g>
		<g transform="matrix(.87389 0 0 .87389 -113.04 -201.46)">
			<circle cx="79.782" cy="438.91" r="4.9835" fill="#fff6d5" fill-opacity=".97521" stroke="#000" stroke-linejoin="round" stroke-width=".35389"/>
			<text x="79.842163" y="442.10245" fill="#000000" font-family="'Open Sans'" font-size="1.8486px" letter-spacing="0px" stroke-width=".23107" text-align="center" text-anchor="middle" word-spacing="0px" style="font-feature-settings:normal;font-variant-caps:normal;font-variant-ligatures:normal;font-variant-numeric:normal;line-height:1.25" xml:space="preserve"><tspan x="79.842163" y="442.10245" stroke-width=".23107">cmake</tspan></text>
			<g transform="matrix(.87335 0 0 .87335 82.375 74.143)">
				<g>
					<path d="m-2.9592 412.95-2.979 6.0355 3.2085-2.7006z" fill="url(#f)"/>
					<path d="m-2.9606 412.96 2.9776 6.0245-2.6573-1.1026z" fill="url(#e)"/>
					<path d="m-3.9762 417.33 4.0341 1.6768-6.0192 8e-3z" fill="url(#d)"/>
					<path d="m-2.6494 417.88 2.6605 1.095-0.065289-0.13873-2.5919-1.0753z" fill="url(#c)"/>
				</g>
				<path d="m-2.9675 412.94-2.9706 6.0717h5.9738z" fill="none" stroke="#000" stroke-width=".05737"/>
				<path d="m-2.649 417.88-0.32316-4.9166" fill="none" stroke="#000" stroke-width=".032644px"/>
			</g>
		</g>
		<g transform="matrix(.87389 0 0 .87389 -191.97 -226.98)" opacity=".278">
			<circle cx="79.782" cy="438.91" r="4.9835" fill="#fff6d5" fill-opacity=".97521" opacity="1" stroke="#000" stroke-linejoin="round" stroke-width=".35389"/>
			<text x="79.842163" y="442.10245" fill="#000000" font-family="'Open Sans'" font-size="1.8486px" letter-spacing="0px" stroke-width=".23107" text-align="center" text-anchor="middle" word-spacing="0px" style="font-feature-settings:normal;font-variant-caps:normal;font-variant-ligatures:normal;font-variant-numeric:normal;line-height:1.25" xml:space="preserve"><tspan x="79.842163" y="442.10245" stroke-width=".23107">cmake</tspan></text>
			<g transform="matrix(.87335 0 0 .87335 82.375 74.143)">
				<g>
					<path d="m-2.9592 412.95-2.979 6.0355 3.2085-2.7006z" fill="url(#f)"/>
					<path d="m-2.9606 412.96 2.9776 6.0245-2.6573-1.1026z" fill="url(#e)"/>
					<path d="m-3.9762 417.33 4.0341 1.6768-6.0192 8e-3z" fill="url(#d)"/>
					<path d="m-2.6494 417.88 2.6605 1.095-0.065289-0.13873-2.5919-1.0753z" fill="url(#c)"/>
				</g>
				<path d="m-2.9675 412.94-2.9706 6.0717h5.9738z" fill="none" stroke="#000" stroke-width=".05737"/>
				<path d="m-2.649 417.88-0.32316-4.9166" fill="none" stroke="#000" stroke-width=".032644px"/>
			</g>
		</g>
	</g>
</svg>
